TITLE ""
FILE "1Q_t_1888-1900.mp3" MP3
  TRACK 01 AUDIO
    TITLE "1Q_t_1888-1900_01"
    INDEX 01 00:00:00
  TRACK 02 AUDIO
    TITLE "1Q_t_1888-1900_02"
    INDEX 01 00:01:16
  TRACK 03 AUDIO
    TITLE "1Q_t_1888-1900_03"
    INDEX 01 00:01:25
  TRACK 04 AUDIO
    TITLE "1Q_t_1888-1900_04"
    INDEX 01 00:02:35
  TRACK 05 AUDIO
    TITLE "1Q_t_1888-1900_05"
    INDEX 01 00:02:43
  TRACK 06 AUDIO
    TITLE "1Q_t_1888-1900_06"
    INDEX 01 00:07:14
  TRACK 07 AUDIO
    TITLE "1Q_t_1888-1900_07"
    INDEX 01 00:07:63
  TRACK 08 AUDIO
    TITLE "1Q_t_1888-1900_08"
    INDEX 01 00:08:73
  TRACK 09 AUDIO
    TITLE "1Q_t_1888-1900_09"
    INDEX 01 00:09:07
  TRACK 10 AUDIO
    TITLE "1Q_t_1888-1900_10"
    INDEX 01 00:10:44
  TRACK 11 AUDIO
    TITLE "1Q_t_1888-1900_11"
    INDEX 01 00:10:52
  TRACK 12 AUDIO
    TITLE "1Q_t_1888-1900_12"
    INDEX 01 00:15:47
  TRACK 13 AUDIO
    TITLE "1Q_t_1888-1900_13"
    INDEX 01 00:16:19
  TRACK 14 AUDIO
    TITLE "1Q_t_1888-1900_14"
    INDEX 01 00:17:46
  TRACK 15 AUDIO
    TITLE "1Q_t_1888-1900_15"
    INDEX 01 00:17:60
  TRACK 16 AUDIO
    TITLE "1Q_t_1888-1900_16"
    INDEX 01 00:20:38
  TRACK 17 AUDIO
    TITLE "1Q_t_1888-1900_17"
    INDEX 01 00:20:46
  TRACK 18 AUDIO
    TITLE "1Q_t_1888-1900_18"
    INDEX 01 00:26:04
  TRACK 19 AUDIO
    TITLE "1Q_t_1888-1900_19"
    INDEX 01 00:26:53
  TRACK 20 AUDIO
    TITLE "1Q_t_1888-1900_20"
    INDEX 01 00:27:56
  TRACK 21 AUDIO
    TITLE "1Q_t_1888-1900_21"
    INDEX 01 00:27:66
  TRACK 22 AUDIO
    TITLE "1Q_t_1888-1900_22"
    INDEX 01 00:29:43
  TRACK 23 AUDIO
    TITLE "1Q_t_1888-1900_23"
    INDEX 01 00:29:53
  TRACK 24 AUDIO
    TITLE "1Q_t_1888-1900_24"
    INDEX 01 00:35:09
  TRACK 25 AUDIO
    TITLE "1Q_t_1888-1900_25"
    INDEX 01 00:35:56
  TRACK 26 AUDIO
    TITLE "1Q_t_1888-1900_26"
    INDEX 01 00:36:69
  TRACK 27 AUDIO
    TITLE "1Q_t_1888-1900_27"
    INDEX 01 00:37:08
  TRACK 28 AUDIO
    TITLE "1Q_t_1888-1900_28"
    INDEX 01 00:39:48
  TRACK 29 AUDIO
    TITLE "1Q_t_1888-1900_29"
    INDEX 01 00:39:57
  TRACK 30 AUDIO
    TITLE "1Q_t_1888-1900_30"
    INDEX 01 00:45:40
  TRACK 31 AUDIO
    TITLE "1Q_t_1888-1900_31"
    INDEX 01 00:46:12
  TRACK 32 AUDIO
    TITLE "1Q_t_1888-1900_32"
    INDEX 01 00:47:22
  TRACK 33 AUDIO
    TITLE "1Q_t_1888-1900_33"
    INDEX 01 00:47:33
  TRACK 34 AUDIO
    TITLE "1Q_t_1888-1900_34"
    INDEX 01 00:49:34
  TRACK 35 AUDIO
    TITLE "1Q_t_1888-1900_35"
    INDEX 01 00:49:44
  TRACK 36 AUDIO
    TITLE "1Q_t_1888-1900_36"
    INDEX 01 00:55:15
  TRACK 37 AUDIO
    TITLE "1Q_t_1888-1900_37"
    INDEX 01 00:55:62
  TRACK 38 AUDIO
    TITLE "1Q_t_1888-1900_38"
    INDEX 01 00:57:06
  TRACK 39 AUDIO
    TITLE "1Q_t_1888-1900_39"
    INDEX 01 00:57:18
  TRACK 40 AUDIO
    TITLE "1Q_t_1888-1900_40"
    INDEX 01 01:01:14
  TRACK 41 AUDIO
    TITLE "1Q_t_1888-1900_41"
    INDEX 01 01:01:24
  TRACK 42 AUDIO
    TITLE "1Q_t_1888-1900_42"
    INDEX 01 01:06:01
  TRACK 43 AUDIO
    TITLE "1Q_t_1888-1900_43"
    INDEX 01 01:06:46
  TRACK 44 AUDIO
    TITLE "1Q_t_1888-1900_44"
    INDEX 01 01:07:60
  TRACK 45 AUDIO
    TITLE "1Q_t_1888-1900_45"
    INDEX 01 01:07:67
  TRACK 46 AUDIO
    TITLE "1Q_t_1888-1900_46"
    INDEX 01 01:12:27
  TRACK 47 AUDIO
    TITLE "1Q_t_1888-1900_47"
    INDEX 01 01:12:37
  TRACK 48 AUDIO
    TITLE "1Q_t_1888-1900_48"
    INDEX 01 01:17:42
  TRACK 49 AUDIO
    TITLE "1Q_t_1888-1900_49"
    INDEX 01 01:18:18
  TRACK 50 AUDIO
    TITLE "1Q_t_1888-1900_50"
    INDEX 01 01:19:27
  TRACK 51 AUDIO
    TITLE "1Q_t_1888-1900_51"
    INDEX 01 01:19:71
  TRACK 52 AUDIO
    TITLE "1Q_t_1888-1900_52"
    INDEX 01 01:21:13
  TRACK 53 AUDIO
    TITLE "1Q_t_1888-1900_53"
    INDEX 01 01:21:26
  TRACK 54 AUDIO
    TITLE "1Q_t_1888-1900_54"
    INDEX 01 01:23:35
  TRACK 55 AUDIO
    TITLE "1Q_t_1888-1900_55"
    INDEX 01 01:23:43
  TRACK 56 AUDIO
    TITLE "1Q_t_1888-1900_56"
    INDEX 01 01:28:73
  TRACK 57 AUDIO
    TITLE "1Q_t_1888-1900_57"
    INDEX 01 01:29:45
  TRACK 58 AUDIO
    TITLE "1Q_t_1888-1900_58"
    INDEX 01 01:30:59
  TRACK 59 AUDIO
    TITLE "1Q_t_1888-1900_59"
    INDEX 01 01:30:70
  TRACK 60 AUDIO
    TITLE "1Q_t_1888-1900_60"
    INDEX 01 01:33:47
  TRACK 61 AUDIO
    TITLE "1Q_t_1888-1900_61"
    INDEX 01 01:33:57
  TRACK 62 AUDIO
    TITLE "1Q_t_1888-1900_62"
    INDEX 01 01:38:72
  TRACK 63 AUDIO
    TITLE "1Q_t_1888-1900_63"
    INDEX 01 01:39:46
  TRACK 64 AUDIO
    TITLE "1Q_t_1888-1900_64"
    INDEX 01 01:40:75
  TRACK 65 AUDIO
    TITLE "1Q_t_1888-1900_65"
    INDEX 01 01:41:11
  TRACK 66 AUDIO
    TITLE "1Q_t_1888-1900_66"
    INDEX 01 01:44:12
  TRACK 67 AUDIO
    TITLE "1Q_t_1888-1900_67"
    INDEX 01 01:44:22
  TRACK 68 AUDIO
    TITLE "1Q_t_1888-1900_68"
    INDEX 01 01:50:24
  TRACK 69 AUDIO
    TITLE "1Q_t_1888-1900_69"
    INDEX 01 01:50:73
  TRACK 70 AUDIO
    TITLE "1Q_t_1888-1900_70"
    INDEX 01 01:52:23
  TRACK 71 AUDIO
    TITLE "1Q_t_1888-1900_71"
    INDEX 01 01:52:35
  TRACK 72 AUDIO
    TITLE "1Q_t_1888-1900_72"
    INDEX 01 01:53:52
  TRACK 73 AUDIO
    TITLE "1Q_t_1888-1900_73"
    INDEX 01 01:53:62
  TRACK 74 AUDIO
    TITLE "1Q_t_1888-1900_74"
    INDEX 01 01:59:64
  TRACK 75 AUDIO
    TITLE "1Q_t_1888-1900_75"
    INDEX 01 02:00:36
  TRACK 76 AUDIO
    TITLE "1Q_t_1888-1900_76"
    INDEX 01 02:01:57
  TRACK 77 AUDIO
    TITLE "1Q_t_1888-1900_77"
    INDEX 01 02:01:69
  TRACK 78 AUDIO
    TITLE "1Q_t_1888-1900_78"
    INDEX 01 02:04:07
  TRACK 79 AUDIO
    TITLE "1Q_t_1888-1900_79"
    INDEX 01 02:04:16
  TRACK 80 AUDIO
    TITLE "1Q_t_1888-1900_80"
    INDEX 01 02:09:49
